<svg xmlns="http://www.w3.org/2000/svg" width="460" height="170" viewBox="0 0 460 170" fill="none">
  <defs>
    <linearGradient id="accent" x1="0" y1="0" x2="1" y2="0">
      <stop offset="0%" stop-color="#9945FF"/>
      <stop offset="100%" stop-color="#14F195"/>
    </linearGradient>
    <clipPath id="card-clip">
      <rect width="460" height="170" rx="12"/>
    </clipPath>
    <style>
      @import url('https://fonts.googleapis.com/css2?family=Fira+Code:wght@400;700&amp;display=swap');
    </style>
  </defs>

  <g clip-path="url(#card-clip)">
    <!-- Background -->
    <rect width="460" height="170" fill="#0d1117" rx="12"/>

    <!-- Border -->
    <rect x="0.5" y="0.5" width="459" height="169" rx="11.5" stroke="#30363d" stroke-width="1" fill="none"/>

    <!-- Gradient accent bar -->
    <rect width="460" height="4" fill="url(#accent)"/>

    <!-- Title -->
    <text x="20" y="38" fill="#e6edf3" font-size="14" font-weight="700" font-family="'Fira Code', monospace">0xgdr's GitHub Stats</text>

    <!-- Stats -->
    
      <g transform="translate(46, 85)">
        <svg x="-8" y="-30" width="16" height="16" viewBox="0 0 16 16"><path d="M8 .25a.75.75 0 0 1 .673.418l1.882 3.815 4.21.612a.75.75 0 0 1 .416 1.279l-3.046 2.97.719 4.192a.75.75 0 0 1-1.088.791L8 12.347l-3.766 1.98a.75.75 0 0 1-1.088-.79l.72-4.194L.818 6.374a.75.75 0 0 1 .416-1.28l4.21-.611L7.327.668A.75.75 0 0 1 8 .25Z" fill="#8b949e"/></svg>
        <text y="0" text-anchor="middle" fill="#e6edf3" font-size="18" font-weight="700" font-family="'Fira Code', monospace">444</text>
        <text y="20" text-anchor="middle" fill="#8b949e" font-size="10" font-family="'Fira Code', monospace">Total Stars</text>
      </g>
      <g transform="translate(138, 85)">
        <svg x="-8" y="-30" width="16" height="16" viewBox="0 0 16 16"><path d="M11.93 8.5a4.002 4.002 0 0 1-7.86 0H.75a.75.75 0 0 1 0-1.5h3.32a4.002 4.002 0 0 1 7.86 0h3.32a.75.75 0 0 1 0 1.5Zm-1.43-.25a2.5 2.5 0 1 0-5 0 2.5 2.5 0 0 0 5 0Z" fill="#8b949e"/></svg>
        <text y="0" text-anchor="middle" fill="#e6edf3" font-size="18" font-weight="700" font-family="'Fira Code', monospace">1.5k</text>
        <text y="20" text-anchor="middle" fill="#8b949e" font-size="10" font-family="'Fira Code', monospace">Total Commits</text>
      </g>
      <g transform="translate(230, 85)">
        <svg x="-8" y="-30" width="16" height="16" viewBox="0 0 16 16"><path d="M2 2.5A2.5 2.5 0 0 1 4.5 0h8.75a.75.75 0 0 1 .75.75v12.5a.75.75 0 0 1-.75.75h-2.5a.75.75 0 0 1 0-1.5h1.75v-2h-8a1 1 0 0 0-.714 1.7.75.75 0 1 1-1.072 1.05A2.495 2.495 0 0 1 2 11.5Zm10.5-1h-8a1 1 0 0 0-1 1v6.708A2.486 2.486 0 0 1 4.5 9h8ZM5 12.25a.25.25 0 0 1 .25-.25h3.5a.25.25 0 0 1 .25.25v3.25a.25.25 0 0 1-.4.2l-1.45-1.087a.249.249 0 0 0-.3 0L5.4 15.7a.25.25 0 0 1-.4-.2Z" fill="#8b949e"/></svg>
        <text y="0" text-anchor="middle" fill="#e6edf3" font-size="18" font-weight="700" font-family="'Fira Code', monospace">13</text>
        <text y="20" text-anchor="middle" fill="#8b949e" font-size="10" font-family="'Fira Code', monospace">Public Repos</text>
      </g>
      <g transform="translate(322, 85)">
        <svg x="-8" y="-30" width="16" height="16" viewBox="0 0 16 16"><path d="M10.561 8.073a6.005 6.005 0 0 1 3.432 5.142.75.75 0 1 1-1.498.07 4.5 4.5 0 0 0-8.99 0 .75.75 0 0 1-1.498-.07 6.004 6.004 0 0 1 3.431-5.142 3.999 3.999 0 1 1 5.123 0ZM10.5 5a2.5 2.5 0 1 0-5 0 2.5 2.5 0 0 0 5 0Z" fill="#8b949e"/></svg>
        <text y="0" text-anchor="middle" fill="#e6edf3" font-size="18" font-weight="700" font-family="'Fira Code', monospace">145</text>
        <text y="20" text-anchor="middle" fill="#8b949e" font-size="10" font-family="'Fira Code', monospace">Followers</text>
      </g>
      <g transform="translate(414, 85)">
        <svg x="-8" y="-30" width="16" height="16" viewBox="0 0 16 16"><path d="M5 3.25a.75.75 0 1 1-1.5 0 .75.75 0 0 1 1.5 0Zm0 2.122a2.25 2.25 0 1 0-1.5 0v.878A2.25 2.25 0 0 0 5.75 8.5h1.5v2.128a2.251 2.251 0 1 0 1.5 0V8.5h1.5a2.25 2.25 0 0 0 2.25-2.25v-.878a2.25 2.25 0 1 0-1.5 0v.878a.75.75 0 0 1-.75.75h-4.5A.75.75 0 0 1 5 6.25v-.878Zm3.75 7.378a.75.75 0 1 1-1.5 0 .75.75 0 0 1 1.5 0Zm3-8.75a.75.75 0 1 0-1.5 0 .75.75 0 0 0 1.5 0Z" fill="#8b949e"/></svg>
        <text y="0" text-anchor="middle" fill="#e6edf3" font-size="18" font-weight="700" font-family="'Fira Code', monospace">97</text>
        <text y="20" text-anchor="middle" fill="#8b949e" font-size="10" font-family="'Fira Code', monospace">Total Forks</text>
      </g>
  </g>
</svg>